<svg width="33" height="44" viewBox="0 0 33 44" fill="none" xmlns="http://www.w3.org/2000/svg">
<path d="M5 8.99997L11.5 9.48145M32 11L24.5 10.4444M24.5 10.4444C24.7735 3.68174 20.4539 1.80865 19 1.49996C17.5461 1.19128 14.2137 1.77175 11.5 9.48145M24.5 10.4444L11.5 9.48145M3.5 20.5L15 21.0948M32.5 22L15 21.0948M15 21.0948L11.5 16M15 21.0948L19 26.5M1 36.5L4 36.4048M32.5 35.5L16.75 36M16.75 36C18.0688 40.131 13.6588 42.9873 11.5 43C9.34121 43.0127 4.33906 40.0561 4 36.4048M16.75 36L4 36.4048M16.75 36C16.1875 31.2796 14.8585 29.5085 10 28.5C5.47435 29.4862 4.16922 31.2253 4 36.4048" stroke="black"/>
</svg>
