<svg width="37" height="76" viewBox="0 0 37 76" fill="none" xmlns="http://www.w3.org/2000/svg">
<path d="M5.5 6.5L29 7.25806M36.5 7.5L29 7.25806M29 7.25806L25.5 1M29 7.25806L25.5 13M4.5 18.5H20.5M36.5 18.5H20.5M20.5 18.5L15.5 14.5M20.5 18.5C21.6686 21.0811 22.5 24.5 22.5 24.5M2.5 27.5L33 28.8864C33 28.8864 37 28.8864 35.5 29C34 29.1136 15.2141 41.4748 0.5 39.5M1.5 45L34.5 46H25.5M25.5 46H5.5C7.41804 49.3804 8.61999 51.2461 17.5 53C21.5473 52.3381 23.3162 50.8445 25.5 46ZM1.5 60L31.5 62.5C28.3873 66.785 26.52 69.1483 20.5 72.5C15.8701 70.9822 13.9367 70.1089 12 68.5L0.5 75" stroke="black"/>
</svg>
