<svg width="35" height="40" viewBox="0 0 35 40" fill="none" xmlns="http://www.w3.org/2000/svg">
<path d="M4.5 7.50001C10.735 7.24365 14.1666 7.05925 21.5 7.50001V2.00001C26.5768 0.82483 34.5 0.878194 34.5 2.00001M2.5 17C9.8936 15.6828 13.9691 14.6418 22.5 18.25M34.5 19C27.5 19 27.6703 19.6991 22.5 18.25M22.5 18.25C23.8634 22.7785 26.2641 24.8662 34.5 27.5M1 30.5C12.0741 29.0001 18.4511 28.9189 30.5 31.8209M34.5 32L30.5 31.8209M30.5 31.8209C29.4321 35.8211 28.7434 37.1947 27.5 39.5" stroke="black"/>
</svg>
