<svg width="37" height="64" viewBox="0 0 37 64" fill="none" xmlns="http://www.w3.org/2000/svg">
<path d="M2 60.5L9.5 61.0515M36 63L29 62.4853M29 62.4853C27.3904 58.9456 21.5 52.5 18.5 52C15.5 51.5 10.8242 54.7789 9.5 61.0515M29 62.4853L9.5 61.0515M2 41.5C13.4646 42.2414 18.8116 42.1679 36 45.5M11 37C12.8471 40.9178 14.3319 43.1059 17.5 47M3 27C14.913 27.4548 21.5922 27.6709 33.5 30.5M23.5 24C21.0412 27.8359 19.7197 30.0207 17.5 34M1 19C9.483 19.1541 14.1761 19.117 21.5 17C20.2747 14.2697 19.451 12.7375 17.5 10C24.3342 9.6504 28.1658 9.60863 35 10M1 4.50001C4.26759 0.790484 13.7488 0.948463 35 2.50001" stroke="black"/>
</svg>
