<svg width="40" height="53" viewBox="0 0 40 53" fill="none" xmlns="http://www.w3.org/2000/svg">
<path d="M1 49.5L3 49.6936M32 52.5L3 49.6936M3 49.6936C5.61039 46.041 7.19752 44.3962 10.5 43C15.0049 43.961 16.4596 44.6425 18 46L35 41M3 32.5L34 34.5M4 23.5L20 24.5C20.0318 21.5866 20.0249 20.2461 20 18C27.4199 17.4036 31.58 17.0578 39 18M4 9.5L8 9.44203M38.5 9C38 9 28.5 9.14493 28.5 9.14493M28.5 9.14493C26.8762 4.46847 26.7326 1.25842 20 0.5C14.1085 1.46043 11.3516 3.14627 8 9.44203M28.5 9.14493L8 9.44203" stroke="black"/>
</svg>
